<?xml version="1.0" encoding="utf-8"?>
<!-- Generator: Adobe Illustrator 16.0.4, SVG Export Plug-In . SVG Version: 6.00 Build 0)  -->
<!DOCTYPE svg PUBLIC "-//W3C//DTD SVG 1.1//EN" "http://www.w3.org/Graphics/SVG/1.1/DTD/svg11.dtd">
<svg version="1.1" id="Layer_1" xmlns="http://www.w3.org/2000/svg" xmlns:xlink="http://www.w3.org/1999/xlink" x="0px" y="0px"
	 width="426.3208px" height="147.69287px" viewBox="0 0 426.3208 147.69287" enable-background="new 0 0 426.3208 147.69287"
	 xml:space="preserve">
<g id="dark">
	<g>
		<path fill="#CFD2CA" d="M19.51172,60.08887c-5.88965,0-10.61426-2.19336-14.17236-6.5835
			c-3.55957-4.38867-5.33887-9.98291-5.33887-16.78418c0-6.79932,1.69873-12.33301,5.09619-16.59814
			c3.39746-4.26562,7.87793-6.39844,13.44434-6.39844c2.84668,0,5.40234,0.60254,7.66846,1.80811
			c2.26416,1.20557,4.01172,2.70508,5.2417,4.49756c2.5874,3.64844,3.88281,7.10938,3.88281,10.38574
			c0,1.73096-0.8418,2.59619-2.52393,2.59619H5.63037C5.5,33.81641,5.43652,34.95947,5.43652,36.44336
			c0,5.68799,1.34229,10.35498,4.02832,14.00195c2.68457,3.64795,6.0332,5.4707,10.04688,5.4707
			c1.74707,0,3.33203-0.44775,4.75635-1.34424c1.42236-0.89551,2.42676-1.76221,3.00879-2.59668
			c0.58252-0.83447,1.24561-1.96191,1.99023-3.38477c0.74316-1.4209,1.76221-2.13232,3.05762-2.13232
			c1.94141,0,2.91211,0.83447,2.91211,2.50342c0,2.16455-1.44092,4.55957-4.31982,7.18652
			C28.03711,58.77637,24.23438,60.08887,19.51172,60.08887z M26.20947,21.23584c-2.07178-2.28662-4.64453-3.43115-7.71729-3.43115
			c-3.07422,0-5.61475,1.08252-7.62012,3.24561c-2.00635,2.16455-3.39746,4.60596-4.17383,7.32568h23.00537
			C29.44434,25.90381,28.27979,23.52344,26.20947,21.23584z"/>
		<path fill="#CFD2CA" d="M68.91846,46.45801c1.16504,0,2.00537,0.26367,2.52393,0.78809
			c0.51709,0.52588,0.77686,1.09814,0.77686,1.71533c0,2.16455-1.44092,4.55957-4.31982,7.18652
			c-2.88037,2.62842-6.61768,3.94092-11.21143,3.94092c-5.82422,0-10.51709-2.20947-14.0752-6.62988
			c-3.55957-4.41943-5.33887-9.96826-5.33887-16.64502c0-6.67627,1.71387-12.19385,5.14453-16.55176
			c3.4292-4.3584,7.79736-6.5376,13.10449-6.5376c2.91211,0,5.46777,0.66504,7.66846,1.99365
			c2.19922,1.33008,3.30029,3.07617,3.30029,5.23926c0,1.11279-0.30762,2.04004-0.92188,2.78174
			c-0.61572,0.7417-1.50488,1.11279-2.66943,1.11279c-1.16504,0-2.20068-0.6333-3.10645-1.90088
			c-0.90674-1.2666-1.39209-2.73535-1.45605-4.40479c-1.03564-0.43164-1.94141-0.64893-2.71777-0.64893
			c-3.55957,0-6.60059,1.74756-9.12451,5.23926c-2.52393,3.49316-3.78564,8.00635-3.78564,13.53809
			c0,5.5332,1.34229,10.10742,4.02832,13.72412c2.68457,3.61621,6.00146,5.42432,9.94971,5.42432
			c3.94629,0,7.08594-2.37891,9.41553-7.14014C66.81494,47.19971,67.75391,46.45801,68.91846,46.45801z"/>
		<path fill="#CFD2CA" d="M73.67432,36.76758c0-6.64453,1.98975-12.11523,5.96973-16.41309
			c3.97998-4.2959,9.35059-6.44434,16.11377-6.44434c6.76123,0,12.13379,2.13281,16.11328,6.39844
			c3.97998,4.26514,5.96973,9.72168,5.96973,16.36621c0,6.646-1.97461,12.14746-5.9209,16.50586
			c-3.94824,4.3584-9.36719,6.53711-16.25928,6.53711s-12.2793-2.16309-16.16211-6.49072
			C75.61572,48.90039,73.67432,43.41357,73.67432,36.76758z M83.8667,49.98145c3.16992,3.58594,7.11768,5.37842,11.84229,5.37842
			c4.72314,0,8.68799-1.77637,11.89111-5.33203c3.20361-3.5542,4.80518-7.9585,4.80518-13.21387
			c0-5.25342-1.61865-9.6582-4.85352-13.21387c-3.23682-3.5542-7.18311-5.33154-11.84277-5.33154
			c-4.65918,0-8.59033,1.76172-11.79395,5.28516c-3.20312,3.52393-4.80469,7.91406-4.80469,13.16748
			C79.11035,41.97656,80.69531,46.39697,83.8667,49.98145z"/>
		<path fill="#CFD2CA" d="M139.87402,39.2251h-16.79297c-1.55322,0-2.32959-0.81885-2.32959-2.45752
			c0-1.63721,0.77637-2.45703,2.32959-2.45703h16.79297c0.77686,0,1.37451,0.23145,1.7959,0.69531
			c0.42041,0.46338,0.63086,1.03613,0.63086,1.71533C142.30078,38.39062,141.49121,39.2251,139.87402,39.2251z"/>
		<path fill="#CFD2CA" d="M155.25977,4.35889c2.16699-2.53369,4.61084-3.80176,7.32861-3.80176s4.77148,0.60303,6.16406,1.80811
			c1.39062,1.20557,2.08691,2.42725,2.08691,3.66309c0,1.2373-0.32471,2.14844-0.9707,2.73535
			c-0.64746,0.58838-1.55322,0.88086-2.71777,0.88086c-1.16504,0-2.24951-0.5708-3.25195-1.71533
			c-1.00439-1.14307-1.60156-2.33301-1.7959-3.57031c-1.48926,0.125-2.75146,1.25195-3.78564,3.38477
			c-1.03613,2.13281-1.61865,4.55957-1.74756,7.2793h4.95068c0.646,0,1.16504,0.21729,1.55322,0.64893
			c0.38818,0.43311,0.58252,0.94336,0.58252,1.53027c0,0.58789-0.21094,1.09814-0.63086,1.52979
			c-0.42188,0.43311-0.92236,0.64893-1.50488,0.64893h-4.65918v34.95898h3.10596c0.58252,0,1.09961,0.24756,1.55322,0.7417
			c0.45215,0.49561,0.67969,1.05176,0.67969,1.66895c0,0.61865-0.21094,1.17529-0.63086,1.66943
			c-0.42188,0.49561-0.95557,0.7417-1.60205,0.7417h-11.25977c-1.68359,0-2.52393-0.83447-2.52393-2.50391
			c0-0.61719,0.20947-1.15869,0.63086-1.62256c0.42041-0.46338,1.05127-0.69531,1.89307-0.69531h2.71777V19.38086h-3.20312
			c-0.64795,0-1.1499-0.21582-1.50488-0.64893c-0.35645-0.43164-0.53369-0.92725-0.53369-1.4834
			c0-1.48389,0.67969-2.22559,2.03857-2.22559h3.49414C151.91064,10.44873,153.09082,6.89453,155.25977,4.35889z"/>
		<path fill="#CFD2CA" d="M183.26318,18.82471v35.51514h1.84424c0.77686,0,1.37451,0.23193,1.7959,0.69531
			c0.42041,0.46387,0.63086,1.03613,0.63086,1.71533c0,1.6084-0.80957,2.41113-2.42676,2.41113h-9.22119
			c-1.68359,0-2.52393-0.80273-2.52393-2.41113c0-1.60645,0.84033-2.41064,2.52393-2.41064h1.94141V19.47363h-1.94141
			c-0.8418,0-1.48975-0.24609-1.94141-0.7417c-0.45361-0.49414-0.67969-1.06641-0.67969-1.71533
			c0-0.64941,0.22607-1.20557,0.67969-1.66943c0.45166-0.46338,1.09961-0.69531,1.94141-0.69531h17.95752
			c3.30029,0,5.79102,0.66504,7.47461,1.99365c1.68213,1.33008,2.52393,3.01367,2.52393,5.05371
			c0,1.05176-0.25977,1.99365-0.77686,2.82812c-0.51855,0.83496-1.35889,1.25195-2.52393,1.25195
			c-1.16455,0-2.21729-0.50977-3.15479-1.52979c-0.93848-1.02002-1.42383-2.10107-1.45605-3.24561
			c-0.0332-1.14307,0.01562-1.86914,0.146-2.1792H183.26318z"/>
		<path fill="#CFD2CA" d="M212.0918,19.38086h-2.52393c-0.77637,0-1.39209-0.23145-1.84424-0.69531
			c-0.45361-0.46338-0.67969-1.00391-0.67969-1.62256c0-1.60693,0.84033-2.41113,2.52393-2.41113h4.85352
			c2.00537,0,3.04102,0.83447,3.10645,2.50391v37.18408h2.42676c0.77637,0,1.37402,0.24756,1.79541,0.7417
			c0.42041,0.49561,0.63135,1.05176,0.63135,1.66895c0,1.6084-0.81006,2.41113-2.42676,2.41113h-10.28955
			c-0.64746,0-1.21338-0.23193-1.69873-0.69531c-0.48535-0.46387-0.72803-1.00439-0.72803-1.62305
			c0-0.61719,0.24268-1.18945,0.72803-1.71533c0.48535-0.52441,1.05127-0.78809,1.69873-0.78809l2.42676-0.09277V19.38086z
			 M213.54785,0.27881c1.29346,0,2.37793,0.40283,3.25195,1.20557c0.87354,0.8042,1.31006,1.77783,1.31006,2.9209
			c0,1.14453-0.43652,2.11865-1.31006,2.9209c-0.87402,0.8042-1.94141,1.20557-3.20361,1.20557
			c-1.26172,0-2.32959-0.40137-3.20312-1.20557c-0.87354-0.80225-1.31055-1.77637-1.31055-2.9209
			c0-1.14307,0.42041-2.1167,1.26221-2.9209C211.18457,0.68164,212.25244,0.27881,213.54785,0.27881z"/>
		<path fill="#CFD2CA" d="M246.55029,60.08887c-5.88867,0-10.61328-2.19336-14.17188-6.5835
			c-3.55957-4.38867-5.33887-9.98291-5.33887-16.78418c0-6.79932,1.69824-12.33301,5.0957-16.59814
			c3.39746-4.26562,7.87793-6.39844,13.44434-6.39844c2.84668,0,5.40234,0.60254,7.66895,1.80811
			c2.26465,1.20557,4.01172,2.70508,5.24121,4.49756c2.58789,3.64844,3.88281,7.10938,3.88281,10.38574
			c0,1.73096-0.8418,2.59619-2.52344,2.59619h-27.17969c-0.12988,0.8042-0.19434,1.94727-0.19434,3.43115
			c0,5.68799,1.34277,10.35498,4.02832,14.00195c2.68457,3.64795,6.03418,5.4707,10.04688,5.4707
			c1.74707,0,3.33203-0.44775,4.75684-1.34424c1.42285-0.89551,2.42676-1.76221,3.00879-2.59668
			c0.58301-0.83447,1.24512-1.96191,1.99023-3.38477c0.74316-1.4209,1.7627-2.13232,3.05762-2.13232
			c1.94141,0,2.91211,0.83447,2.91211,2.50342c0,2.16455-1.44043,4.55957-4.31934,7.18652
			C255.07568,58.77637,251.27393,60.08887,246.55029,60.08887z M253.24854,21.23584
			c-2.07227-2.28662-4.64453-3.43115-7.7168-3.43115c-3.0752,0-5.61523,1.08252-7.62012,3.24561
			c-2.00684,2.16455-3.39746,4.60596-4.17383,7.32568h23.00488C256.48389,25.90381,255.31885,23.52344,253.24854,21.23584z"/>
		<path fill="#CFD2CA" d="M276.44678,54.33984h2.81445c0.71191,0,1.29395,0.24756,1.74805,0.7417
			c0.45215,0.49561,0.67871,1.05176,0.67871,1.66895c0,0.61865-0.22656,1.17529-0.67871,1.66943
			c-0.4541,0.49561-1.03613,0.7417-1.74805,0.7417h-11.35645c-0.71289,0-1.2793-0.23193-1.69922-0.69531
			c-0.4209-0.46387-0.63086-1.02002-0.63086-1.66943c0-0.64893,0.20996-1.21973,0.63086-1.71533
			c0.41992-0.49414,0.98633-0.7417,1.69922-0.7417h3.10645V19.47363h-3.98047c-0.71289,0-1.26172-0.23145-1.65039-0.69531
			c-0.3877-0.46338-0.58203-1.06641-0.58203-1.80811s0.24219-1.31299,0.72754-1.71533
			c0.48535-0.40137,0.98633-0.60303,1.50488-0.60303h7.47461c0.71094,0,1.19629,0.12451,1.45605,0.37109
			c0.25781,0.24756,0.38867,0.71143,0.38867,1.39062v6.95508c1.74707-2.78223,3.97949-5.03809,6.69727-6.76953
			c2.71777-1.72998,5.56445-2.59619,8.54199-2.59619c4.91699,0,8.41211,1.40674,10.4834,4.21924
			c2.07031,2.81348,3.10645,6.29102,3.10645,10.43164v25.68604h2.71777c0.71191,0,1.29395,0.24756,1.74805,0.7417
			c0.45117,0.49561,0.67871,1.05176,0.67871,1.66895c0,0.61865-0.22754,1.17529-0.67871,1.66943
			c-0.4541,0.49561-1.03613,0.7417-1.74805,0.7417h-10.4834c-1.55273,0-2.3291-0.80273-2.3291-2.41113
			c0-1.60645,0.77637-2.41064,2.3291-2.41064h2.33008V28.19043c0-6.55176-2.75195-9.82959-8.25098-9.82959
			c-3.68848,0-7.12012,1.63867-10.29004,4.91504c-3.1709,3.27734-4.75586,7.35742-4.75586,12.23975V54.33984z"/>
		<path fill="#CFD2CA" d="M351.09326,54.33984h4.5625c0.58203,0,1.06738,0.24756,1.45605,0.7417
			c0.3877,0.49561,0.58203,1.05176,0.58203,1.66895c0,0.61865-0.19434,1.17529-0.58203,1.66943
			c-0.38867,0.49561-0.87402,0.7417-1.45605,0.7417h-8.1543c-1.23047,0-1.84473-0.61719-1.84473-1.85449v-5.28564
			c-1.42383,2.16455-3.33301,3.94092-5.72656,5.33203c-2.39551,1.39062-4.98438,2.08643-7.76562,2.08643
			c-5.37207,0-9.62695-2.05469-12.76465-6.1665c-3.13965-4.11035-4.70801-9.4585-4.70801-16.04199
			c0-6.58398,1.58496-12.05469,4.75684-16.41309c3.16992-4.3584,7.44043-6.53711,12.8125-6.53711
			c2.91211,0,5.56543,0.64893,7.95996,1.94727c2.39355,1.29785,4.20605,3.0293,5.43555,5.19238V4.82275h-4.56152
			c-1.55371,0-2.33008-0.80273-2.33008-2.41113c0-1.60645,0.77637-2.41064,2.33008-2.41064h7.47363
			c0.90625,0,1.55371,0.1709,1.94141,0.50977c0.38867,0.34033,0.58301,0.97363,0.58301,1.90088V54.33984z M323.23389,49.7959
			c2.13574,3.58594,5.30566,5.37842,9.5127,5.37842c4.20605,0,7.47461-1.57617,9.80469-4.729
			c2.3291-3.15283,3.49414-7.47949,3.49414-12.98193c0-5.50146-1.11621-10.04541-3.34863-13.63135
			c-2.23242-3.58447-5.45312-5.37842-9.65918-5.37842c-3.10547,0-5.66309,1.08252-7.66797,3.24561
			c-3.55957,3.64844-5.33887,8.84131-5.33887,15.57861C320.03076,42.03857,321.09814,46.21143,323.23389,49.7959z"/>
		<path fill="#CFD2CA" d="M367.49756,4.91553h-3.10547c-0.77734,0-1.39258-0.23193-1.84473-0.69531
			c-0.45312-0.46387-0.67969-1.05078-0.67969-1.76221c0-0.70996,0.22656-1.28223,0.67969-1.71533
			c0.45215-0.43164,1.06738-0.64893,1.84473-0.64893h5.53223c1.09961,0,1.87695,0.18506,2.33008,0.55615
			c0.45215,0.37109,0.67969,1.05176,0.67969,2.04004v51.6499h2.42676c0.77637,0,1.37402,0.24756,1.7959,0.7417
			c0.41992,0.49561,0.63086,1.05176,0.63086,1.66895c0,1.6084-0.81055,2.41113-2.42676,2.41113H365.0708
			c-0.71289,0-1.29492-0.23193-1.74707-0.69531c-0.45312-0.46387-0.67969-1.02002-0.67969-1.66943
			c0-0.64893,0.22656-1.21973,0.67969-1.71533c0.45215-0.49414,1.03418-0.7417,1.74707-0.7417h2.42676V4.91553z"/>
		<path fill="#CFD2CA" d="M381.5708,19.47363c-0.51855,0-0.9873-0.26221-1.40723-0.78809
			c-0.42188-0.52441-0.63086-1.08057-0.63086-1.66895c0-0.58691,0.20898-1.12744,0.63086-1.62305
			c0.41992-0.49365,0.88867-0.7417,1.40723-0.7417h11.55176c0.51758,0,0.98535,0.24805,1.40723,0.7417
			c0.41992,0.49561,0.63086,1.03613,0.63086,1.62305c0,0.58838-0.21094,1.14453-0.63086,1.66895
			c-0.42188,0.52588-0.88965,0.78809-1.40723,0.78809l-2.71777,0.09277l13.00684,28.74609l13.29883-28.83887h-2.33008
			c-0.58203,0-1.10059-0.26221-1.55273-0.78809c-0.45312-0.52441-0.67969-1.08057-0.67969-1.66895
			c0-0.58691,0.20996-1.12744,0.63086-1.62305c0.4209-0.49365,0.9541-0.7417,1.60156-0.7417h9.70703
			c0.64648,0,1.18066,0.24805,1.60156,0.7417c0.4209,0.49561,0.63184,1.03613,0.63184,1.62305
			c0,0.58838-0.22754,1.14453-0.67969,1.66895c-0.4541,0.52588-0.9707,0.78809-1.55371,0.78809h-2.3291l-18.44336,39.50244
			c-2.71777,5.99561-5.50098,9.64404-8.34863,10.94189c-1.42383,0.67969-3.20312,1.02002-5.33789,1.02002
			c-2.13574,0-3.90039-0.63428-5.29102-1.90088c-1.3916-1.26758-2.08691-2.48926-2.08691-3.6626
			c0-2.3501,1.06836-3.52393,3.20312-3.52393c1.61719,0,2.89551,0.60303,3.83496,1.80859
			c0.93652,1.20508,1.4707,2.45703,1.60156,3.75537c2.71777-0.18555,5.33887-3.06006,7.8623-8.62402l1.84473-4.35791
			l-15.62891-34.95898H381.5708z"/>
	</g>
	<g>
		<path fill="#FFFFFF" d="M228.28662,74.49805h-2.95312c-1.96777,0-2.95215-1.08594-2.95215-3.26025
			c0-2.17188,0.98438-3.25977,2.95215-3.25977h14.39355c16.15527,0,24.23438,4.4707,24.23438,13.4082
			c0,2.78906-0.65723,5.20898-1.96875,7.25879c-1.3125,2.05078-3.11719,3.36328-5.41211,3.93652
			c4.2627,0.9834,7.85156,3.93652,10.76367,8.85645c2.91016,4.9209,4.36719,10.41602,4.36719,16.48438
			c0,8.20215-2.39844,15.00781-7.19629,20.4209s-12.44629,8.11914-22.94336,8.11914H225.3335
			c-0.82031,0-1.51758-0.30762-2.09082-0.92285c-0.5752-0.61523-0.86133-1.37207-0.86133-2.27539
			c0-2.13184,0.98438-3.19824,2.95215-3.19824h2.95312V74.49805z M235.29834,89.75146h8.98047
			c4.2627,0,7.56543-0.55371,9.90234-1.66016c2.33789-1.10742,3.50586-3.13672,3.50586-6.08984
			c0-5.73877-5.28906-8.61084-15.86914-8.61084c-4.34766,0-6.51953,0.32861-6.51953,0.98438V89.75146z M235.29834,95.77979v44.16309
			c0,0.65723,1.96777,0.9834,5.9043,0.9834c7.9541,0,13.85938-1.92578,17.71484-5.78125
			c3.85449-3.85449,5.78223-9.5957,5.78223-17.22266s-1.94922-13.22461-5.84375-16.79102
			c-3.89648-3.56836-8.87793-5.35156-14.94629-5.35156H235.29834z"/>
		<path fill="#FFFFFF" d="M296.68311,85.93799c7.05273,0,12.52637,2.29688,16.42285,6.88965
			c3.89453,4.59375,5.84375,10.45605,5.84375,17.59082c0,11.31738,0.40918,18.96582,1.22949,22.94238
			c0.81934,3.97949,2.37793,6.78711,4.6748,8.42676c1.39355,0.65723,2.0918,1.55859,2.0918,2.70605
			c0,2.13184-0.98438,3.19922-2.95312,3.19922c-1.96777,0-3.83398-0.92285-5.59668-2.76855
			c-1.76465-1.84473-3.17969-4.12109-4.24414-6.82715c-1.39551,2.70605-3.62891,4.98242-6.7041,6.82715
			c-3.07617,1.8457-6.74707,2.76855-11.01074,2.76855c-6.2334,0-11.29785-1.94727-15.19238-5.84375
			c-3.89648-3.89453-5.84277-8.85742-5.84277-14.88477c0-6.02832,2.04883-11.17383,6.15039-15.43848
			c4.09961-4.26367,9.20508-6.39746,15.31543-6.39746c6.1084,0,11.21387,2.01074,15.31543,6.02832
			c0-5.73926-1.22949-10.55859-3.69043-14.4541c-2.45996-3.89453-6.2334-5.84375-11.31738-5.84375
			c-5.08594,0-8.28418,1.39551-9.59473,4.18262c0.7373,1.72266,1.10645,3.1582,1.10645,4.30566
			c0,1.14941-0.49219,2.37988-1.47559,3.69043c-0.98438,1.3125-2.19531,1.96777-3.62891,1.96777
			c-1.43652,0-2.56445-0.61523-3.38379-1.84473c-0.82031-1.23047-1.22949-2.66406-1.22949-4.30566
			c0-3.44434,1.70117-6.45801,5.10449-9.04199C287.47607,87.22998,291.68018,85.93799,296.68311,85.93799z M282.16748,126.41064
			c0,4.51172,1.5166,8.28418,4.55176,11.31738c3.0332,3.03516,6.66211,4.55176,10.88672,4.55176
			c4.22266,0,7.76953-1.45508,10.64062-4.36719c2.87012-2.91016,4.30566-6.45801,4.30566-10.64062v-1.10742
			c0-4.42871-1.47559-8.07715-4.42871-10.94824c-2.95215-2.87012-6.58105-4.30566-10.88672-4.30566
			s-7.89453,1.45703-10.76367,4.36719C283.60107,118.18994,282.16748,121.90088,282.16748,126.41064z"/>
		<path fill="#FFFFFF" d="M337.52295,74.49805h-3.93652c-0.9834,0-1.76465-0.30762-2.33691-0.92285
			c-0.5752-0.61475-0.86133-1.39355-0.86133-2.3374c0-0.94189,0.28613-1.70068,0.86133-2.27539
			c0.57227-0.57324,1.35352-0.86133,2.33691-0.86133h7.0127c1.39355,0,2.37695,0.24609,2.95215,0.73828
			c0.57227,0.4917,0.86133,1.39551,0.86133,2.70605v68.52051h3.0752c0.98438,0,1.74121,0.32812,2.27539,0.9834
			c0.5332,0.65723,0.7998,1.39551,0.7998,2.21484c0,2.13379-1.02637,3.19824-3.0752,3.19824h-13.04004
			c-0.90332,0-1.6416-0.30762-2.21387-0.92285c-0.5752-0.61523-0.86133-1.35254-0.86133-2.21387s0.28613-1.61914,0.86133-2.27637
			c0.57227-0.65527,1.31055-0.9834,2.21387-0.9834h3.0752V74.49805z"/>
		<path fill="#FFFFFF" d="M363.84814,93.68799h-3.19922c-0.9834,0-1.76465-0.30762-2.33691-0.92188
			c-0.5752-0.61523-0.86133-1.33203-0.86133-2.15332c0-2.13184,1.06543-3.19824,3.19824-3.19824h6.15137
			c2.54102,0,3.85352,1.10742,3.93652,3.32129v49.33008h3.0752c0.98438,0,1.74121,0.32812,2.27637,0.9834
			c0.53223,0.65723,0.79883,1.39551,0.79883,2.21484c0,2.13379-1.02637,3.19824-3.0752,3.19824h-13.04004
			c-0.82031,0-1.53711-0.30762-2.15234-0.92285s-0.92285-1.33203-0.92285-2.15234c0-0.81934,0.30762-1.57812,0.92285-2.27637
			c0.61523-0.69531,1.33203-1.04492,2.15234-1.04492l3.07617-0.12305V93.68799z M365.69287,68.34717
			c1.63965,0,3.01367,0.53418,4.12109,1.59912c1.10742,1.06689,1.66113,2.3584,1.66113,3.875
			c0,1.51855-0.55371,2.81006-1.66113,3.875c-1.10742,1.06689-2.45996,1.59912-4.05957,1.59912s-2.95215-0.53223-4.05957-1.59912
			c-1.10742-1.06494-1.66016-2.35645-1.66016-3.875c0-1.5166,0.53223-2.80811,1.59863-3.875
			C362.69873,68.88135,364.05127,68.34717,365.69287,68.34717z"/>
	</g>
	<g>
		<path fill-rule="evenodd" clip-rule="evenodd" fill="#CFD2CA" stroke="#CFD2CA" stroke-width="2.6" stroke-miterlimit="10" d="
			M132.14941,73.93945c0.00342-3.43262,1.72705-4.93115,5.15332-4.92432c5.21289,0.01123,10.396,0.30518,15.5542,1.03369
			c11.7168,1.65137,22.98779,4.54688,33.20801,10.87256c15.29492,9.4668,25.2793,30.17773,11.20703,48.77637
			c-1.51855,2.00684-0.30518,2.58008,0.99902,3.4209c5.98926,3.8584,9.32568,6.04883,12.63379,7.53711
			c1.30713,0.58789,3.16602,0.78418,2.91309,2.78418c-0.24365,1.92578-2.79541,1.58691-3.69629,1.02441
			c-4.53809-2.81836-9.10889-5.61133-13.45459-8.70996c-2.11719-1.51074-3.45752-1.54102-5.51807,0.16016
			c-6.38037,5.25488-13.81592,7.86035-22.10352,7.06055c-15.02148-1.45117-24.20801-10.72363-30.13916-23.68262
			c-5.16504-11.28613-6.8252-23.37695-6.75781-35.70898C132.14844,80.36768,132.146,77.1543,132.14941,73.93945z
			 M174.93896,117.75439c-2.09766-1.86328-4.7002-0.59277-7.04053-0.96777c-1.63037-0.26074-4.34863,0.85547-4.32324-1.8457
			c0.021-2.40723,2.59863-1.29004,4.10498-1.53516c0.59424-0.09961,1.21777-0.01758,2.78174-0.01758
			c-3.85205-4.32324-7.26904-8.07617-10.5708-11.92676c-0.7915-0.92285-2.68066-1.9707-1.271-3.37012
			c1.66162-1.6543,2.66455,0.33301,3.61865,1.38281c5.64062,6.19238,11.04346,12.6123,18.05078,18.81055
			c0-3.99023-0.02539-7.26172,0.01318-10.53027c0.01465-1.22754,0.06934-2.72461,1.75928-2.64648
			c1.64648,0.07422,1.59375,1.55664,1.60498,2.79102c0.01562,1.83789,0.28125,3.72949-0.04248,5.50977
			c-1.17822,6.43945,1.70264,10.47656,6.84424,14.03516c2.94043,2.03223,3.87646,1.29297,5.4873-1.12793
			c8.54248-12.82812,5.32031-29.74707-7.77783-39.99414c-11.40186-8.92041-24.91553-11.85791-38.84619-13.50049
			c-3.64697-0.42871-7.33496-0.50781-10.99756-0.83496c-2.38428-0.21484-3.28271,0.7915-3.32227,3.14941
			c-0.24121,14.31104,0.72266,28.42334,6.31152,41.85205c1.71631,4.125,3.95264,7.92969,6.79688,11.37207
			c11.47754,13.89355,28.75195,15.46191,42.77979,3.71191C185.39893,127.13135,180.19043,122.4165,174.93896,117.75439z"/>
		<path fill-rule="evenodd" clip-rule="evenodd" fill="#FFFFFF" stroke="#FFFFFF" stroke-width="2" stroke-miterlimit="10" d="
			M151.86719,78.76025c0.21289,1.09375,1.02881,1.37109,1.98438,1.58398c4.4541,0.98633,8.99316,1.6377,13.2915,3.27832
			c0.96533,0.36914,1.85254,0.05078,2.24512-0.9668c0.33447-0.86426-0.22412-1.5459-0.9292-1.8125
			c-4.85889-1.83887-9.85352-3.14697-15.06299-3.4541C152.55225,77.33838,152.0376,77.92529,151.86719,78.76025z"/>
		<path fill-rule="evenodd" clip-rule="evenodd" fill="#FFFFFF" stroke="#FFFFFF" stroke-width="2" stroke-miterlimit="10" d="
			M161.39307,131.93115c-0.11572,1.19238,0.20703,2.3291,1.22559,2.18359c2.24707-0.32031,2.21777-2.53027,2.70215-4.15234
			c0.27197-0.91504-0.24609-2.00977-1.39111-1.76074C161.94385,128.63818,162.0542,130.68896,161.39307,131.93115z"/>
		<path fill-rule="evenodd" clip-rule="evenodd" fill="#FFFFFF" stroke="#FFFFFF" stroke-width="2" stroke-miterlimit="10" d="
			M144.54932,79.40479c1.19678-0.05762,2.97998,0.35742,2.98633-1.26172c0.00781-2.29541-2.13525-1.61816-3.52393-1.68262
			c-1.28467-0.06201-3.35693-0.5166-3.22852,1.40527C140.92285,79.93994,143.18164,79.10205,144.54932,79.40479z"/>
		<path fill-rule="evenodd" clip-rule="evenodd" fill="#FFFFFF" stroke="#FFFFFF" stroke-width="2" stroke-miterlimit="10" d="
			M153.47803,127.58252c0.24658,0.96973,0.85498,1.5625,1.646,1.31055c1.77832-0.56836,3.1543-1.77344,3.54736-3.64062
			c0.16064-0.75781-0.75928-1.39355-1.5459-1.19531C155.23926,124.52979,154.13623,125.91455,153.47803,127.58252z"/>
		<path fill-rule="evenodd" clip-rule="evenodd" fill="#FFFFFF" stroke="#FFFFFF" stroke-width="2" stroke-miterlimit="10" d="
			M148.66211,119.95557c0.19971,1.55078,1.07275,1.90625,2.0127,1.56738c1.46191-0.52539,3.54688-0.49023,3.55469-2.79492
			c0.00488-0.97754-0.93896-1.15137-1.68604-1.01172C150.92334,118.01904,149.2876,118.3999,148.66211,119.95557z"/>
		<path fill-rule="evenodd" clip-rule="evenodd" fill="#FFFFFF" stroke="#FFFFFF" stroke-width="2" stroke-miterlimit="10" d="
			M180.5415,133.98486c1.13721-0.30371,1.67383-1.03613,1.31152-2.01562c-0.54199-1.46484-0.5957-3.48438-2.53174-3.83594
			c-1.29639-0.23633-1.81201,0.85645-1.40332,2.06934C178.42725,131.71729,178.70703,133.45557,180.5415,133.98486z"/>
		<path fill-rule="evenodd" clip-rule="evenodd" fill="#FFFFFF" stroke="#FFFFFF" stroke-width="2" stroke-miterlimit="10" d="
			M169.97705,132.45361c-0.07812,1.6543-0.15137,3.28223,1.37061,3.28809c1.9458,0.00488,1.55859-1.85938,1.54346-3.14941
			c-0.01221-1.11816,0.38232-2.78418-1.37598-2.81055C169.34033,129.75439,170.20898,131.69482,169.97705,132.45361z"/>
	</g>
</g>
<g id="light" display="none">
	<g display="inline">
		<path fill="#515C3E" d="M19.51123,60.08789c-5.88965,0-10.61426-2.19336-14.17236-6.5835C1.7793,49.11572,0,43.52148,0,36.72021
			c0-6.79932,1.69873-12.33301,5.09619-16.59814c3.39746-4.26562,7.87793-6.39844,13.44434-6.39844
			c2.84668,0,5.40234,0.60254,7.66846,1.80811c2.26416,1.20557,4.01172,2.70508,5.2417,4.49756
			c2.5874,3.64844,3.88281,7.10938,3.88281,10.38574c0,1.73096-0.8418,2.59619-2.52393,2.59619H5.62988
			c-0.13037,0.8042-0.19385,1.94727-0.19385,3.43115c0,5.68799,1.34229,10.35498,4.02832,14.00195
			c2.68457,3.64795,6.0332,5.4707,10.04688,5.4707c1.74707,0,3.33203-0.44775,4.75635-1.34424
			c1.42236-0.89551,2.42676-1.76221,3.00879-2.59668c0.58252-0.83447,1.24561-1.96191,1.99023-3.38477
			c0.74316-1.4209,1.76221-2.13232,3.05762-2.13232c1.94141,0,2.91211,0.83447,2.91211,2.50342
			c0,2.16455-1.44092,4.55957-4.31982,7.18652C28.03662,58.77539,24.23389,60.08789,19.51123,60.08789z M26.20898,21.23486
			c-2.07178-2.28662-4.64453-3.43115-7.71729-3.43115c-3.07422,0-5.61475,1.08252-7.62012,3.24561
			c-2.00635,2.16455-3.39746,4.60596-4.17383,7.32568h23.00537C29.44385,25.90283,28.2793,23.52246,26.20898,21.23486z"/>
		<path fill="#515C3E" d="M68.91797,46.45703c1.16504,0,2.00537,0.26367,2.52393,0.78809
			c0.51709,0.52588,0.77686,1.09814,0.77686,1.71533c0,2.16455-1.44092,4.55957-4.31982,7.18652
			c-2.88037,2.62842-6.61768,3.94092-11.21143,3.94092c-5.82422,0-10.51709-2.20947-14.0752-6.62988
			c-3.55957-4.41943-5.33887-9.96826-5.33887-16.64502c0-6.67627,1.71387-12.19385,5.14453-16.55176
			c3.4292-4.3584,7.79736-6.5376,13.10449-6.5376c2.91211,0,5.46777,0.66504,7.66846,1.99365
			c2.19922,1.33008,3.30029,3.07617,3.30029,5.23926c0,1.11279-0.30762,2.04004-0.92188,2.78174
			c-0.61572,0.7417-1.50488,1.11279-2.66943,1.11279c-1.16504,0-2.20068-0.6333-3.10645-1.90088
			c-0.90674-1.2666-1.39209-2.73535-1.45605-4.40479c-1.03564-0.43164-1.94141-0.64893-2.71777-0.64893
			c-3.55957,0-6.60059,1.74756-9.12451,5.23926c-2.52393,3.49316-3.78564,8.00635-3.78564,13.53809
			c0,5.5332,1.34229,10.10742,4.02832,13.72412c2.68457,3.61621,6.00146,5.42432,9.94971,5.42432
			c3.94629,0,7.08594-2.37891,9.41553-7.14014C66.81445,47.19873,67.75342,46.45703,68.91797,46.45703z"/>
		<path fill="#515C3E" d="M73.67383,36.7666c0-6.64453,1.98975-12.11523,5.96973-16.41309
			c3.97998-4.2959,9.35059-6.44434,16.11377-6.44434c6.76123,0,12.13379,2.13281,16.11328,6.39844
			c3.97998,4.26514,5.96973,9.72168,5.96973,16.36621c0,6.646-1.97461,12.14746-5.9209,16.50586
			c-3.94824,4.3584-9.36719,6.53711-16.25928,6.53711s-12.2793-2.16309-16.16211-6.49072
			C75.61523,48.89941,73.67383,43.4126,73.67383,36.7666z M83.86621,49.98047c3.16992,3.58594,7.11768,5.37842,11.84229,5.37842
			c4.72314,0,8.68799-1.77637,11.89111-5.33203c3.20361-3.5542,4.80518-7.9585,4.80518-13.21387
			c0-5.25342-1.61865-9.6582-4.85352-13.21387c-3.23682-3.5542-7.18311-5.33154-11.84277-5.33154
			c-4.65918,0-8.59033,1.76172-11.79395,5.28516c-3.20312,3.52393-4.80469,7.91406-4.80469,13.16748
			C79.10986,41.97559,80.69482,46.396,83.86621,49.98047z"/>
		<path fill="#515C3E" d="M139.87354,39.22412h-16.79297c-1.55322,0-2.32959-0.81885-2.32959-2.45752
			c0-1.63721,0.77637-2.45703,2.32959-2.45703h16.79297c0.77686,0,1.37451,0.23145,1.7959,0.69531
			c0.42041,0.46338,0.63086,1.03613,0.63086,1.71533C142.30029,38.38965,141.49072,39.22412,139.87354,39.22412z"/>
		<path fill="#515C3E" d="M155.25928,4.35791c2.16699-2.53369,4.61084-3.80176,7.32861-3.80176s4.77148,0.60303,6.16406,1.80811
			c1.39062,1.20557,2.08691,2.42725,2.08691,3.66309c0,1.2373-0.32471,2.14844-0.9707,2.73535
			c-0.64746,0.58838-1.55322,0.88086-2.71777,0.88086c-1.16504,0-2.24951-0.5708-3.25195-1.71533
			c-1.00439-1.14307-1.60156-2.33301-1.7959-3.57031c-1.48926,0.125-2.75146,1.25195-3.78564,3.38477
			c-1.03613,2.13281-1.61865,4.55957-1.74756,7.2793h4.95068c0.646,0,1.16504,0.21729,1.55322,0.64893
			c0.38818,0.43311,0.58252,0.94336,0.58252,1.53027c0,0.58789-0.21094,1.09814-0.63086,1.52979
			c-0.42188,0.43311-0.92236,0.64893-1.50488,0.64893h-4.65918v34.95898h3.10596c0.58252,0,1.09961,0.24756,1.55322,0.7417
			c0.45215,0.49561,0.67969,1.05176,0.67969,1.66895c0,0.61865-0.21094,1.17529-0.63086,1.66943
			c-0.42188,0.49561-0.95557,0.7417-1.60205,0.7417h-11.25977c-1.68359,0-2.52393-0.83447-2.52393-2.50391
			c0-0.61719,0.20947-1.15869,0.63086-1.62256c0.42041-0.46338,1.05127-0.69531,1.89307-0.69531h2.71777V19.37988h-3.20312
			c-0.64795,0-1.1499-0.21582-1.50488-0.64893c-0.35645-0.43164-0.53369-0.92725-0.53369-1.4834
			c0-1.48389,0.67969-2.22559,2.03857-2.22559h3.49414C151.91016,10.44775,153.09033,6.89355,155.25928,4.35791z"/>
		<path fill="#515C3E" d="M183.2627,18.82373v35.51514h1.84424c0.77686,0,1.37451,0.23193,1.7959,0.69531
			c0.42041,0.46387,0.63086,1.03613,0.63086,1.71533c0,1.6084-0.80957,2.41113-2.42676,2.41113h-9.22119
			c-1.68359,0-2.52393-0.80273-2.52393-2.41113c0-1.60645,0.84033-2.41064,2.52393-2.41064h1.94141V19.47266h-1.94141
			c-0.8418,0-1.48975-0.24609-1.94141-0.7417c-0.45361-0.49414-0.67969-1.06641-0.67969-1.71533
			c0-0.64941,0.22607-1.20557,0.67969-1.66943c0.45166-0.46338,1.09961-0.69531,1.94141-0.69531h17.95752
			c3.30029,0,5.79102,0.66504,7.47461,1.99365c1.68213,1.33008,2.52393,3.01367,2.52393,5.05371
			c0,1.05176-0.25977,1.99365-0.77686,2.82812c-0.51855,0.83496-1.35889,1.25195-2.52393,1.25195
			c-1.16455,0-2.21729-0.50977-3.15479-1.52979c-0.93848-1.02002-1.42383-2.10107-1.45605-3.24561
			c-0.0332-1.14307,0.01562-1.86914,0.146-2.1792H183.2627z"/>
		<path fill="#515C3E" d="M212.09131,19.37988h-2.52393c-0.77637,0-1.39209-0.23145-1.84424-0.69531
			c-0.45361-0.46338-0.67969-1.00391-0.67969-1.62256c0-1.60693,0.84033-2.41113,2.52393-2.41113h4.85352
			c2.00537,0,3.04102,0.83447,3.10645,2.50391v37.18408h2.42676c0.77637,0,1.37402,0.24756,1.79541,0.7417
			c0.42041,0.49561,0.63135,1.05176,0.63135,1.66895c0,1.6084-0.81006,2.41113-2.42676,2.41113h-10.28955
			c-0.64746,0-1.21338-0.23193-1.69873-0.69531c-0.48535-0.46387-0.72803-1.00439-0.72803-1.62305
			c0-0.61719,0.24268-1.18945,0.72803-1.71533c0.48535-0.52441,1.05127-0.78809,1.69873-0.78809l2.42676-0.09277V19.37988z
			 M213.54736,0.27783c1.29346,0,2.37793,0.40283,3.25195,1.20557c0.87354,0.8042,1.31006,1.77783,1.31006,2.9209
			c0,1.14453-0.43652,2.11865-1.31006,2.9209c-0.87402,0.8042-1.94141,1.20557-3.20361,1.20557
			c-1.26172,0-2.32959-0.40137-3.20312-1.20557c-0.87354-0.80225-1.31055-1.77637-1.31055-2.9209
			c0-1.14307,0.42041-2.1167,1.26221-2.9209C211.18408,0.68066,212.25195,0.27783,213.54736,0.27783z"/>
		<path fill="#515C3E" d="M246.54932,60.08789c-5.88867,0-10.61328-2.19336-14.17188-6.5835
			c-3.55908-4.38867-5.33838-9.98291-5.33838-16.78418c0-6.79932,1.69824-12.33301,5.09619-16.59814
			c3.39648-4.26562,7.87695-6.39844,13.44336-6.39844c2.84766,0,5.40234,0.60254,7.66992,1.80811
			c2.26367,1.20557,4.01172,2.70508,5.24023,4.49756c2.58789,3.64844,3.88281,7.10938,3.88281,10.38574
			c0,1.73096-0.8418,2.59619-2.52344,2.59619h-27.17969c-0.12891,0.8042-0.19336,1.94727-0.19336,3.43115
			c0,5.68799,1.3418,10.35498,4.02734,14.00195c2.68555,3.64795,6.03516,5.4707,10.04688,5.4707
			c1.74805,0,3.33203-0.44775,4.75781-1.34424c1.42188-0.89551,2.42578-1.76221,3.00781-2.59668
			c0.58398-0.83447,1.24609-1.96191,1.99023-3.38477c0.74414-1.4209,1.76367-2.13232,3.05859-2.13232
			c1.94141,0,2.91211,0.83447,2.91211,2.50342c0,2.16455-1.44141,4.55957-4.32031,7.18652
			C255.07471,58.77539,251.27393,60.08789,246.54932,60.08789z M253.24854,21.23486
			c-2.07227-2.28662-4.64453-3.43115-7.7168-3.43115c-3.07617,0-5.61523,1.08252-7.62109,3.24561
			c-2.00586,2.16455-3.39648,4.60596-4.17383,7.32568h23.00586C256.48291,25.90283,255.31885,23.52246,253.24854,21.23486z"/>
		<path fill="#515C3E" d="M276.4458,54.33887h2.81445c0.71289,0,1.29492,0.24756,1.74805,0.7417
			c0.45312,0.49561,0.67969,1.05176,0.67969,1.66895c0,0.61865-0.22656,1.17529-0.67969,1.66943
			c-0.45312,0.49561-1.03516,0.7417-1.74805,0.7417h-11.35547c-0.71289,0-1.2793-0.23193-1.69922-0.69531
			c-0.42188-0.46387-0.63086-1.02002-0.63086-1.66943c0-0.64893,0.20898-1.21973,0.63086-1.71533
			c0.41992-0.49414,0.98633-0.7417,1.69922-0.7417h3.10547V19.47266h-3.98047c-0.71289,0-1.26172-0.23145-1.65039-0.69531
			c-0.38672-0.46338-0.58203-1.06641-0.58203-1.80811s0.24219-1.31299,0.72852-1.71533
			c0.48438-0.40137,0.98633-0.60303,1.50391-0.60303h7.47461c0.71094,0,1.19727,0.12451,1.45703,0.37109
			c0.25781,0.24756,0.38867,0.71143,0.38867,1.39062v6.95508c1.74609-2.78223,3.97852-5.03809,6.69727-6.76953
			c2.7168-1.72998,5.56445-2.59619,8.54102-2.59619c4.91797,0,8.41211,1.40674,10.48438,4.21924
			c2.07031,2.81348,3.10547,6.29102,3.10547,10.43164v25.68604h2.71875c0.71094,0,1.29297,0.24756,1.74805,0.7417
			c0.45117,0.49561,0.67773,1.05176,0.67773,1.66895c0,0.61865-0.22656,1.17529-0.67773,1.66943
			c-0.45508,0.49561-1.03711,0.7417-1.74805,0.7417H297.4126c-1.55273,0-2.32812-0.80273-2.32812-2.41113
			c0-1.60645,0.77539-2.41064,2.32812-2.41064h2.33008V28.18945c0-6.55176-2.75195-9.82959-8.25-9.82959
			c-3.68945,0-7.12109,1.63867-10.29102,4.91504c-3.16992,3.27734-4.75586,7.35742-4.75586,12.23975V54.33887z"/>
		<path fill="#515C3E" d="M351.09229,54.33887h4.5625c0.58203,0,1.06836,0.24756,1.45703,0.7417
			c0.38672,0.49561,0.58203,1.05176,0.58203,1.66895c0,0.61865-0.19531,1.17529-0.58203,1.66943
			c-0.38867,0.49561-0.875,0.7417-1.45703,0.7417h-8.1543c-1.23047,0-1.84375-0.61719-1.84375-1.85449v-5.28564
			c-1.42383,2.16455-3.33398,3.94092-5.72656,5.33203c-2.39648,1.39062-4.98438,2.08643-7.76562,2.08643
			c-5.37305,0-9.62695-2.05469-12.76562-6.1665c-3.13867-4.11035-4.70703-9.4585-4.70703-16.04199
			c0-6.58398,1.58398-12.05469,4.75586-16.41309c3.16992-4.3584,7.44141-6.53711,12.8125-6.53711
			c2.91211,0,5.56641,0.64893,7.96094,1.94727c2.39258,1.29785,4.20508,3.0293,5.43555,5.19238V4.82178h-4.5625
			c-1.55273,0-2.33008-0.80273-2.33008-2.41113C338.76416,0.8042,339.5415,0,341.09424,0h7.47461
			c0.90625,0,1.55273,0.1709,1.94141,0.50977c0.38867,0.34033,0.58203,0.97363,0.58203,1.90088V54.33887z M323.23291,49.79492
			c2.13672,3.58594,5.30664,5.37842,9.51367,5.37842c4.20508,0,7.47461-1.57617,9.80469-4.729
			c2.32812-3.15283,3.49414-7.47949,3.49414-12.98193c0-5.50146-1.11719-10.04541-3.34961-13.63135
			c-2.23242-3.58447-5.45312-5.37842-9.6582-5.37842c-3.10547,0-5.66406,1.08252-7.66797,3.24561
			c-3.56055,3.64844-5.33984,8.84131-5.33984,15.57861C320.02979,42.0376,321.09814,46.21045,323.23291,49.79492z"/>
		<path fill="#515C3E" d="M367.49658,4.91455h-3.10547c-0.77734,0-1.39258-0.23193-1.84375-0.69531
			c-0.45312-0.46387-0.67969-1.05078-0.67969-1.76221c0-0.70996,0.22656-1.28223,0.67969-1.71533
			c0.45117-0.43164,1.06641-0.64893,1.84375-0.64893h5.5332c1.09961,0,1.87695,0.18506,2.33008,0.55615
			c0.45117,0.37109,0.67969,1.05176,0.67969,2.04004v51.6499h2.42578c0.77734,0,1.375,0.24756,1.79688,0.7417
			c0.41992,0.49561,0.63086,1.05176,0.63086,1.66895c0,1.6084-0.81055,2.41113-2.42773,2.41113H365.0708
			c-0.71289,0-1.29492-0.23193-1.74805-0.69531c-0.45312-0.46387-0.67969-1.02002-0.67969-1.66943
			c0-0.64893,0.22656-1.21973,0.67969-1.71533c0.45312-0.49414,1.03516-0.7417,1.74805-0.7417h2.42578V4.91455z"/>
		<path fill="#515C3E" d="M381.5708,19.47266c-0.51953,0-0.98828-0.26221-1.4082-0.78809
			c-0.42188-0.52441-0.63086-1.08057-0.63086-1.66895c0-0.58691,0.20898-1.12744,0.63086-1.62305
			c0.41992-0.49365,0.88867-0.7417,1.4082-0.7417h11.55078c0.51758,0,0.98633,0.24805,1.4082,0.7417
			c0.41992,0.49561,0.63086,1.03613,0.63086,1.62305c0,0.58838-0.21094,1.14453-0.63086,1.66895
			c-0.42188,0.52588-0.89062,0.78809-1.4082,0.78809l-2.7168,0.09277l13.00586,28.74609l13.29883-28.83887h-2.33008
			c-0.58203,0-1.09961-0.26221-1.55273-0.78809c-0.45312-0.52441-0.67969-1.08057-0.67969-1.66895
			c0-0.58691,0.21094-1.12744,0.63086-1.62305c0.42188-0.49365,0.95508-0.7417,1.60156-0.7417h9.70703
			c0.64648,0,1.18164,0.24805,1.60156,0.7417c0.42188,0.49561,0.63281,1.03613,0.63281,1.62305
			c0,0.58838-0.22852,1.14453-0.67969,1.66895c-0.45508,0.52588-0.9707,0.78809-1.55469,0.78809h-2.32812L403.31494,58.9751
			c-2.71875,5.99561-5.50195,9.64404-8.34961,10.94189c-1.42383,0.67969-3.20312,1.02002-5.33789,1.02002
			s-3.90039-0.63428-5.29102-1.90088c-1.39062-1.26758-2.08594-2.48926-2.08594-3.6626c0-2.3501,1.06836-3.52393,3.20312-3.52393
			c1.61719,0,2.89453,0.60303,3.83398,1.80859c0.9375,1.20508,1.4707,2.45703,1.60156,3.75537
			c2.71875-0.18555,5.33984-3.06006,7.86328-8.62402l1.84375-4.35791l-15.62891-34.95898H381.5708z"/>
	</g>
	<g display="inline">
		<path fill="#2C3322" d="M228.28613,74.49707h-2.95312c-1.96777,0-2.95215-1.08594-2.95215-3.26025
			c0-2.17188,0.98438-3.25977,2.95215-3.25977h14.39404c16.1543,0,24.23438,4.4707,24.23438,13.4082
			c0,2.78906-0.6582,5.20898-1.96875,7.25879c-1.3125,2.05078-3.11719,3.36328-5.41211,3.93652
			c4.26172,0.9834,7.85156,3.93652,10.76367,8.85645c2.91016,4.9209,4.36719,10.41602,4.36719,16.48438
			c0,8.20215-2.39844,15.00781-7.19727,20.4209c-4.79688,5.41309-12.44531,8.11914-22.94336,8.11914h-16.23779
			c-0.82031,0-1.51758-0.30762-2.09082-0.92285c-0.5752-0.61523-0.86133-1.37207-0.86133-2.27539
			c0-2.13184,0.98438-3.19824,2.95215-3.19824h2.95312V74.49707z M235.29736,89.75049h8.98047
			c4.26367,0,7.56641-0.55371,9.90234-1.66016c2.33789-1.10742,3.50586-3.13672,3.50586-6.08984
			c0-5.73877-5.28906-8.61084-15.86914-8.61084c-4.34766,0-6.51953,0.32861-6.51953,0.98438V89.75049z M235.29736,95.77881v44.16309
			c0,0.65723,1.96875,0.9834,5.9043,0.9834c7.95508,0,13.85938-1.92578,17.71484-5.78125
			c3.85547-3.85449,5.7832-9.5957,5.7832-17.22266s-1.94922-13.22461-5.84375-16.79102
			c-3.89648-3.56836-8.87891-5.35156-14.94727-5.35156H235.29736z"/>
		<path fill="#2C3322" d="M296.68213,85.93701c7.05273,0,12.52734,2.29688,16.42383,6.88965
			c3.89453,4.59375,5.84375,10.45605,5.84375,17.59082c0,11.31738,0.4082,18.96582,1.22852,22.94238
			c0.82031,3.97949,2.37891,6.78711,4.67578,8.42676c1.39258,0.65723,2.0918,1.55859,2.0918,2.70605
			c0,2.13184-0.98438,3.19922-2.95312,3.19922s-3.83398-0.92285-5.59766-2.76855c-1.76367-1.84473-3.17969-4.12109-4.24414-6.82715
			c-1.39453,2.70605-3.62891,4.98242-6.70312,6.82715c-3.07617,1.8457-6.74805,2.76855-11.01172,2.76855
			c-6.23242,0-11.29688-1.94727-15.19141-5.84375c-3.89648-3.89453-5.84375-8.85742-5.84375-14.88477
			c0-6.02832,2.04883-11.17383,6.15039-15.43848c4.09961-4.26367,9.20508-6.39746,15.31641-6.39746
			c6.10742,0,11.21289,2.01074,15.31445,6.02832c0-5.73926-1.22852-10.55859-3.68945-14.4541
			c-2.46094-3.89453-6.23438-5.84375-11.31836-5.84375c-5.08594,0-8.2832,1.39551-9.59375,4.18262
			c0.73633,1.72266,1.10547,3.1582,1.10547,4.30566c0,1.14941-0.49219,2.37988-1.47461,3.69043
			c-0.98438,1.3125-2.19531,1.96777-3.62891,1.96777c-1.4375,0-2.56445-0.61523-3.38477-1.84473
			c-0.82031-1.23047-1.22852-2.66406-1.22852-4.30566c0-3.44434,1.70117-6.45801,5.10352-9.04199
			C287.4751,87.229,291.68018,85.93701,296.68213,85.93701z M282.1665,126.40967c0,4.51172,1.51758,8.28418,4.55273,11.31738
			c3.0332,3.03516,6.66211,4.55176,10.88672,4.55176c4.22266,0,7.76953-1.45508,10.64062-4.36719
			c2.86914-2.91016,4.30469-6.45801,4.30469-10.64062v-1.10742c0-4.42871-1.47461-8.07715-4.42773-10.94824
			c-2.95312-2.87012-6.58203-4.30566-10.88672-4.30566c-4.30664,0-7.89453,1.45703-10.76367,4.36719
			C283.6001,118.18896,282.1665,121.8999,282.1665,126.40967z"/>
		<path fill="#2C3322" d="M337.52197,74.49707h-3.93555c-0.98438,0-1.76562-0.30762-2.33789-0.92285
			c-0.57422-0.61475-0.86133-1.39355-0.86133-2.3374c0-0.94189,0.28711-1.70068,0.86133-2.27539
			c0.57227-0.57324,1.35352-0.86133,2.33789-0.86133h7.01172c1.39453,0,2.37695,0.24609,2.95312,0.73828
			c0.57227,0.4917,0.86133,1.39551,0.86133,2.70605v68.52051h3.07422c0.98438,0,1.74219,0.32812,2.27539,0.9834
			c0.5332,0.65723,0.80078,1.39551,0.80078,2.21484c0,2.13379-1.02734,3.19824-3.07617,3.19824h-13.03906
			c-0.9043,0-1.64258-0.30762-2.21484-0.92285c-0.57422-0.61523-0.86133-1.35254-0.86133-2.21387s0.28711-1.61914,0.86133-2.27637
			c0.57227-0.65527,1.31055-0.9834,2.21484-0.9834h3.07422V74.49707z"/>
		<path fill="#2C3322" d="M363.84814,93.68701h-3.19922c-0.98438,0-1.76562-0.30762-2.33789-0.92188
			c-0.57422-0.61523-0.86133-1.33203-0.86133-2.15332c0-2.13184,1.06641-3.19824,3.19922-3.19824h6.15039
			c2.54102,0,3.85352,1.10742,3.9375,3.32129v49.33008h3.07422c0.98438,0,1.74219,0.32812,2.27734,0.9834
			c0.53125,0.65723,0.79883,1.39551,0.79883,2.21484c0,2.13379-1.02734,3.19824-3.07617,3.19824h-13.03906
			c-0.82031,0-1.53711-0.30762-2.15234-0.92285s-0.92383-1.33203-0.92383-2.15234c0-0.81934,0.30859-1.57812,0.92383-2.27637
			c0.61523-0.69531,1.33203-1.04492,2.15234-1.04492l3.07617-0.12305V93.68701z M365.69189,68.34619
			c1.64062,0,3.01367,0.53418,4.12109,1.59912c1.10742,1.06689,1.66211,2.3584,1.66211,3.875
			c0,1.51855-0.55469,2.81006-1.66211,3.875c-1.10742,1.06689-2.45898,1.59912-4.05859,1.59912s-2.95312-0.53223-4.06055-1.59912
			c-1.10742-1.06494-1.66016-2.35645-1.66016-3.875c0-1.5166,0.5332-2.80811,1.59961-3.875
			C362.69775,68.88037,364.05127,68.34619,365.69189,68.34619z"/>
	</g>
	<g display="inline">
		<path fill-rule="evenodd" clip-rule="evenodd" fill="#515C3E" stroke="#515C3E" stroke-width="2.6" stroke-miterlimit="10" d="
			M132.14893,73.93848c0.00342-3.43262,1.72705-4.93115,5.15332-4.92432c5.21289,0.01123,10.396,0.30518,15.5542,1.03369
			c11.7168,1.65137,22.98779,4.54688,33.20801,10.87256c15.29492,9.4668,25.2793,30.17773,11.20703,48.77637
			c-1.51855,2.00684-0.30518,2.58008,0.99902,3.4209c5.98926,3.8584,9.32568,6.04883,12.63379,7.53711
			c1.30713,0.58789,3.16602,0.78418,2.91309,2.78418c-0.24365,1.92578-2.79541,1.58691-3.69629,1.02441
			c-4.53809-2.81836-9.10889-5.61133-13.45459-8.70996c-2.11719-1.51074-3.45752-1.54102-5.51807,0.16016
			c-6.38037,5.25488-13.81592,7.86035-22.10352,7.06055c-15.02148-1.45117-24.20801-10.72363-30.13916-23.68262
			c-5.16504-11.28613-6.8252-23.37695-6.75781-35.70898C132.14795,80.3667,132.14551,77.15332,132.14893,73.93848z
			 M174.93848,117.75342c-2.09766-1.86328-4.7002-0.59277-7.04053-0.96777c-1.63037-0.26074-4.34863,0.85547-4.32324-1.8457
			c0.021-2.40723,2.59863-1.29004,4.10498-1.53516c0.59424-0.09961,1.21777-0.01758,2.78174-0.01758
			c-3.85205-4.32324-7.26904-8.07617-10.5708-11.92676c-0.7915-0.92285-2.68066-1.9707-1.271-3.37012
			c1.66162-1.6543,2.66455,0.33301,3.61865,1.38281c5.64062,6.19238,11.04346,12.6123,18.05078,18.81055
			c0-3.99023-0.02539-7.26172,0.01318-10.53027c0.01465-1.22754,0.06934-2.72461,1.75928-2.64648
			c1.64648,0.07422,1.59375,1.55664,1.60498,2.79102c0.01562,1.83789,0.28125,3.72949-0.04248,5.50977
			c-1.17822,6.43945,1.70264,10.47656,6.84424,14.03516c2.94043,2.03223,3.87646,1.29297,5.4873-1.12793
			c8.54248-12.82812,5.32031-29.74707-7.77783-39.99414c-11.40186-8.92041-24.91553-11.85791-38.84619-13.50049
			c-3.64697-0.42871-7.33496-0.50781-10.99756-0.83496c-2.38428-0.21484-3.28271,0.7915-3.32227,3.14941
			c-0.24121,14.31104,0.72266,28.42334,6.31152,41.85205c1.71631,4.125,3.95264,7.92969,6.79688,11.37207
			c11.47754,13.89355,28.75195,15.46191,42.77979,3.71191C185.39844,127.13037,180.18994,122.41553,174.93848,117.75342z"/>
		<path fill-rule="evenodd" clip-rule="evenodd" fill="#2B3222" stroke="#2C3322" stroke-width="2" stroke-miterlimit="10" d="
			M151.8667,78.75928c0.21289,1.09375,1.02881,1.37109,1.98438,1.58398c4.4541,0.98633,8.99316,1.6377,13.2915,3.27832
			c0.96533,0.36914,1.85254,0.05078,2.24512-0.9668c0.33447-0.86426-0.22412-1.5459-0.9292-1.8125
			c-4.85889-1.83887-9.85352-3.14697-15.06299-3.4541C152.55176,77.3374,152.03711,77.92432,151.8667,78.75928z"/>
		<path fill-rule="evenodd" clip-rule="evenodd" fill="#2B3222" stroke="#2C3322" stroke-width="2" stroke-miterlimit="10" d="
			M161.39258,131.93018c-0.11572,1.19238,0.20703,2.3291,1.22559,2.18359c2.24707-0.32031,2.21777-2.53027,2.70215-4.15234
			c0.27197-0.91504-0.24609-2.00977-1.39111-1.76074C161.94336,128.63721,162.05371,130.68799,161.39258,131.93018z"/>
		<path fill-rule="evenodd" clip-rule="evenodd" fill="#2B3222" stroke="#2C3322" stroke-width="2" stroke-miterlimit="10" d="
			M144.54883,79.40381c1.19678-0.05762,2.97998,0.35742,2.98633-1.26172c0.00781-2.29541-2.13525-1.61816-3.52393-1.68262
			c-1.28467-0.06201-3.35693-0.5166-3.22852,1.40527C140.92236,79.93896,143.18115,79.10107,144.54883,79.40381z"/>
		<path fill-rule="evenodd" clip-rule="evenodd" fill="#2B3222" stroke="#2C3322" stroke-width="2" stroke-miterlimit="10" d="
			M153.47754,127.58154c0.24658,0.96973,0.85498,1.5625,1.646,1.31055c1.77832-0.56836,3.1543-1.77344,3.54736-3.64062
			c0.16064-0.75781-0.75928-1.39355-1.5459-1.19531C155.23877,124.52881,154.13574,125.91357,153.47754,127.58154z"/>
		<path fill-rule="evenodd" clip-rule="evenodd" fill="#2B3222" stroke="#2C3322" stroke-width="2" stroke-miterlimit="10" d="
			M148.66162,119.95459c0.19971,1.55078,1.07275,1.90625,2.0127,1.56738c1.46191-0.52539,3.54688-0.49023,3.55469-2.79492
			c0.00488-0.97754-0.93896-1.15137-1.68604-1.01172C150.92285,118.01807,149.28711,118.39893,148.66162,119.95459z"/>
		<path fill-rule="evenodd" clip-rule="evenodd" fill="#2B3222" stroke="#2C3322" stroke-width="2" stroke-miterlimit="10" d="
			M180.54102,133.98389c1.13721-0.30371,1.67383-1.03613,1.31152-2.01562c-0.54199-1.46484-0.5957-3.48438-2.53174-3.83594
			c-1.29639-0.23633-1.81201,0.85645-1.40332,2.06934C178.42676,131.71631,178.70654,133.45459,180.54102,133.98389z"/>
		<path fill-rule="evenodd" clip-rule="evenodd" fill="#2B3222" stroke="#2C3322" stroke-width="2" stroke-miterlimit="10" d="
			M169.97656,132.45264c-0.07812,1.6543-0.15137,3.28223,1.37061,3.28809c1.9458,0.00488,1.55859-1.85938,1.54346-3.14941
			c-0.01221-1.11816,0.38232-2.78418-1.37598-2.81055C169.33984,129.75342,170.2085,131.69385,169.97656,132.45264z"/>
	</g>
</g>
</svg>
